<svg width="17" height="17" viewBox="0 0 17 17" fill="none" xmlns="http://www.w3.org/2000/svg">
<path d="M8.49176 0.583008C4.12176 0.583008 0.583008 4.12968 0.583008 8.49968C0.583008 12.8697 4.12176 16.4163 8.49176 16.4163C12.8697 16.4163 16.4163 12.8697 16.4163 8.49968C16.4163 4.12968 12.8697 0.583008 8.49176 0.583008ZM8.49968 14.833C5.00051 14.833 2.16634 11.9988 2.16634 8.49968C2.16634 5.00051 5.00051 2.16634 8.49968 2.16634C11.9988 2.16634 14.833 5.00051 14.833 8.49968C14.833 11.9988 11.9988 14.833 8.49968 14.833ZM8.89551 4.54134H7.70801V9.29134L11.8643 11.7851L12.458 10.8113L8.89551 8.69759V4.54134Z" fill="#A7C4C6"/>
</svg>
